<svg xmlns="http://www.w3.org/2000/svg" viewBox="0 0 240 80" width="100%" height="100%">
  <!-- Icon hand/shield -->
  <g transform="translate(15, 10)">
    <!-- Shield -->
    <path d="M30 5 C45 5, 55 12, 55 25 C55 45, 30 55, 30 55 C30 55, 5 45, 5 25 C5 12, 15 5, 30 5 Z" fill="none" stroke="#E11D48" stroke-width="3" stroke-linejoin="round"/>
    <!-- Hand/Heart shape in center -->
    <path d="M30 15 C33 12, 38 12, 40 15 C43 18, 43 23, 40 26 L30 36 L20 26 C17 23, 17 18, 20 15 C22 12, 27 12, 30 15 Z" fill="#E11D48"/>
    <!-- Small protection ring -->
    <circle cx="30" cy="46" r="3" fill="#38BDF8"/>
  </g>
  <!-- Text: te protejo -->
  <text x="80" y="42" font-family="'Inter', system-ui, sans-serif" font-size="24" font-weight="900" fill="#FFFFFF">te <tspan fill="#E11D48">protejo</tspan></text>
  <text x="80" y="58" font-family="'Inter', system-ui, sans-serif" font-size="10" font-weight="700" fill="#94A3B8" letter-spacing="1">Denuncia Virtual</text>
</svg>
